<svg viewBox="0 0 131 10" fill="none" xmlns="http://www.w3.org/2000/svg">
<path d="M4.04167 9.93056H5.54167L9.58333 0.138889H7.73611L4.81944 7.61111L1.88889 0.138889H0L4.04167 9.93056Z" fill="#f1f4fa"/>
<path d="M16.8056 9.86111H24.0833V8.33333H18.5139V5.72222H23.3889V4.19444H18.5139V1.66667H24.0139V0.138889H16.8056V9.86111Z" fill="#f1f4fa"/>
<path d="M35.0684 10C37.11 10 38.5406 8.91667 38.5406 7.09722V7.06945C38.5406 5.45833 37.4711 4.72222 35.4156 4.22222C33.5545 3.77778 33.11 3.44444 33.11 2.69444V2.66667C33.11 2.02778 33.6934 1.51389 34.6934 1.51389C35.5822 1.51389 36.4572 1.86111 37.3322 2.51389L38.2489 1.22222C37.2628 0.430556 36.1378 0 34.7211 0C32.7906 0 31.4017 1.15278 31.4017 2.81944V2.84722C31.4017 4.63889 32.5684 5.25 34.6378 5.75C36.4434 6.16667 36.8322 6.54167 36.8322 7.23611V7.26389C36.8322 8 36.1656 8.48611 35.11 8.48611C33.9017 8.48611 32.9711 8.02778 32.0406 7.22222L31.0128 8.44444C32.1795 9.48611 33.5822 10 35.0684 10Z" fill="#f1f4fa"/>
<path d="M48.2906 9.86111H50.0128V1.72222H53.0961V0.138889H45.2072V1.72222H48.2906V9.86111Z" fill="#f1f4fa"/>
<path d="M60.4633 9.86111H64.9633C67.13 9.86111 68.5605 8.93056 68.5605 7.19445V7.16667C68.5605 5.84722 67.7689 5.19444 66.63 4.80556C67.3522 4.43056 68.0189 3.80556 68.0189 2.63889V2.61111C68.0189 1.95833 67.7967 1.43056 67.3661 1C66.8105 0.444445 65.9355 0.138889 64.8244 0.138889H60.4633V9.86111ZM62.1439 4.23611V1.65278H64.6022C65.6994 1.65278 66.3105 2.125 66.3105 2.88889V2.91667C66.3105 3.80556 65.5744 4.23611 64.4772 4.23611H62.1439ZM62.1439 8.34722V5.68056H64.8522C66.1994 5.68056 66.8522 6.16667 66.8522 6.98611V7.01389C66.8522 7.88889 66.1439 8.34722 64.9772 8.34722H62.1439Z" fill="#f1f4fa"/>
<path d="M76.0422 9.86111H83.32V8.33333H77.7505V5.72222H82.6255V4.19444H77.7505V1.66667H83.2505V0.138889H76.0422V9.86111Z" fill="#f1f4fa"/>
<path d="M90.9023 9.86111H92.6106V6.47222H94.7495L97.1384 9.86111H99.1522L96.5273 6.18056C97.8884 5.79167 98.8467 4.83333 98.8467 3.23611V3.20833C98.8467 2.36111 98.555 1.63889 98.0411 1.11111C97.4161 0.5 96.4578 0.138889 95.2356 0.138889H90.9023V9.86111ZM92.6106 4.95833V1.69445H95.0967C96.3606 1.69445 97.1106 2.26389 97.1106 3.30556V3.33333C97.1106 4.31944 96.3328 4.95833 95.1106 4.95833H92.6106Z" fill="#f1f4fa"/>
<path d="M106.495 9.86111H108.203V6.47222H110.342L112.731 9.86111H114.745L112.12 6.18056C113.481 5.79167 114.439 4.83333 114.439 3.23611V3.20833C114.439 2.36111 114.147 1.63889 113.634 1.11111C113.009 0.5 112.05 0.138889 110.828 0.138889H106.495V9.86111ZM108.203 4.95833V1.69445H110.689C111.953 1.69445 112.703 2.26389 112.703 3.30556V3.33333C112.703 4.31944 111.925 4.95833 110.703 4.95833H108.203Z" fill="#f1f4fa"/>
<path d="M124.596 9.86111H126.318V5.98611L130.179 0.138889H128.221L125.471 4.44444L122.748 0.138889H120.734L124.596 6.02778V9.86111Z" fill="#f1f4fa"/>
</svg>
