<svg width="20" height="20" viewBox="0 0 20 20" fill="none" xmlns="http://www.w3.org/2000/svg">
<path d="M0.484189 20C0.23541 20 0.0332764 19.7977 0.0332764 19.5487C0.0332764 19.4242 0.0799225 19.3152 0.173215 19.2219L9.3625 10.0244L0.173215 0.811432C-0.0289184 0.655806 -0.0600158 0.375681 0.11102 0.173368C0.266507 -0.028944 0.546384 -0.0600681 0.748517 0.111118C0.779615 0.12668 0.795163 0.157806 0.810712 0.173368L10 9.37081L19.1893 0.173368C19.3448 -0.028944 19.6246 -0.0600681 19.8268 0.111118C20.0289 0.266745 20.06 0.546869 19.889 0.749182C19.8734 0.780308 19.8423 0.79587 19.8268 0.811432L10.6375 10.0089L19.8423 19.2219C20.0289 19.3931 20.0289 19.6887 19.8579 19.8599C19.7646 19.9533 19.6557 20 19.5158 20C19.3914 20 19.2826 19.9377 19.2048 19.8599L10 10.6469L0.810712 19.8599C0.71742 19.9533 0.608579 20 0.484189 20Z" fill="#B9C3CD"/>
</svg>
