<svg width="55" height="56" viewBox="0 0 55 56" fill="none" xmlns="http://www.w3.org/2000/svg">
<path d="M15.8887 8.39822H26.0471C26.6288 8.39822 27.1013 7.92608 27.1013 7.34395C27.1013 6.76225 26.6292 6.28967 26.0471 6.28967L15.8887 6.29011C15.307 6.29011 14.8345 6.76225 14.8345 7.34438C14.8349 7.92608 15.307 8.39822 15.8887 8.39822Z" fill="#06AC72"/>
<path d="M18.0186 48.6551C18.0186 49.2368 18.4907 49.7094 19.0728 49.7094H22.8651C23.4468 49.7094 23.9194 49.2372 23.9194 48.6551C23.9194 48.0734 23.4473 47.6008 22.8651 47.6008H19.0728C18.4907 47.6008 18.0186 48.073 18.0186 48.6551Z" fill="#06AC72"/>
<path d="M48.8806 30.7321L45.9226 20.735C45.9226 20.7342 45.9226 20.7324 45.9221 20.7316C45.9217 20.7307 45.9213 20.7294 45.9204 20.7281L43.8849 13.8478C43.6175 12.9465 42.7754 12.3166 41.8351 12.3166C41.6298 12.3166 41.426 12.3461 41.2286 12.4044L35.9073 13.9782V4.83761C35.9073 3.65854 34.9483 2.69995 33.7697 2.69995H8.16939C6.99077 2.69995 6.03174 3.65858 6.03174 4.83761V51.1623C6.03174 52.3409 6.99036 53.2999 8.16939 53.2999H33.7697C34.9483 53.2999 35.9073 52.3413 35.9073 51.1623V36.8007L47.4387 33.3888C48.5681 33.0545 49.2151 31.8619 48.8803 30.7329L48.8806 30.7321ZM16.0483 26.1489L42.9619 18.186L43.5896 20.3219L16.6761 28.2848L16.0483 26.1489ZM41.8634 14.4451L42.3681 16.1623L15.4546 24.1257L14.9411 22.3801L41.8634 14.4451ZM33.7701 51.1905L8.13976 51.1609L8.16932 4.80732L33.7985 4.83688V14.6013L14.3418 20.3579C13.794 20.52 13.3423 20.8857 13.0701 21.3878C12.7975 21.8895 12.7371 22.4673 12.8988 23.0141L13.7049 25.7374C13.7049 25.7392 13.7049 25.7401 13.7053 25.7418C13.7053 25.7422 13.7062 25.7435 13.7062 25.744L14.9339 29.8936C14.9343 29.8954 14.9343 29.8967 14.9347 29.8989C14.9347 29.8997 14.9356 29.901 14.9365 29.9019L17.894 39.898C18.1605 40.8006 19.0035 41.4309 19.9439 41.4309C20.1482 41.4309 20.3526 41.4009 20.5504 41.3431L33.7957 37.4243L33.7701 51.1905ZM19.9549 39.3208C19.9514 39.3217 19.948 39.3225 19.9454 39.3225L19.9175 39.3004L17.2725 30.3075L44.186 22.3438L46.8393 31.367L19.9549 39.3208Z" fill="#06AC72"/>
<path d="M43.9704 28.9368C43.8057 28.3782 43.2201 28.0603 42.6605 28.2247L37.2048 29.8385C36.6461 30.0032 36.3279 30.5902 36.4927 31.1484C36.6287 31.6071 37.0483 31.9045 37.503 31.9045C37.6021 31.9045 37.7026 31.8901 37.8026 31.8605L43.2583 30.2468C43.8169 30.0815 44.1356 29.4955 43.9704 28.9368L43.9704 28.9368Z" fill="#06AC72"/>
</svg>
