<svg width="55" height="56" viewBox="0 0 55 56" fill="none" xmlns="http://www.w3.org/2000/svg">
<path d="M27.4629 18.9586V15.7914C26.4931 15.5089 25.7687 15.0915 25.3146 14.5145C24.8606 13.9501 24.6273 13.2502 24.6273 12.44C24.6273 11.6177 24.8851 10.9179 25.4004 10.3656C25.9282 9.80113 26.6035 9.48156 27.4629 9.39576V8.64673H28.5556V9.39576C29.3659 9.48156 30.004 9.76401 30.4707 10.206C30.9493 10.6601 31.2563 11.2616 31.3792 12.0227L29.4763 12.2681C29.3534 11.6786 29.0463 11.2737 28.5557 11.065V14.0115C29.7708 14.3306 30.5936 14.76 31.0356 15.2758C31.4776 15.8035 31.6863 16.4663 31.6863 17.289C31.6863 18.1976 31.4164 18.9587 30.864 19.5848C30.3116 20.2109 29.5505 20.5912 28.5562 20.7512V22.1629H27.4635V20.7632C26.6041 20.6648 25.9042 20.3337 25.3643 19.8059C24.8245 19.2661 24.4683 18.4924 24.3208 17.5102L26.285 17.2889C26.3587 17.6818 26.5057 18.0255 26.727 18.3204C26.9472 18.6149 27.193 18.8236 27.463 18.9586L27.4629 18.9586ZM27.4629 11.0287C27.1684 11.139 26.9351 11.3111 26.763 11.5565C26.5909 11.7897 26.5051 12.0597 26.5051 12.3542C26.5051 12.612 26.5909 12.8699 26.7384 13.0907C26.898 13.324 27.1433 13.5081 27.4629 13.643V11.0287ZM28.5556 19.0815C28.9364 18.9957 29.2429 18.8116 29.4887 18.5417C29.722 18.2592 29.8449 17.9281 29.8449 17.5473C29.8449 17.2157 29.7466 16.9212 29.5379 16.6879C29.3412 16.4426 29.0221 16.2459 28.5561 16.123L28.5556 19.0815Z" fill="#06AC72"/>
<path d="M41.7431 34.7888C41.5041 34.7888 41.2635 34.7059 41.0688 34.5367C40.6394 34.1641 40.5931 33.5134 40.9657 33.084C41.0187 33.0228 41.0862 32.9461 41.1657 32.8565C44.453 29.1354 44.4573 27.9443 44.3802 27.6682C44.3725 27.6402 44.3489 27.5559 44.0785 27.471C43.5358 27.3004 43.234 26.7225 43.4047 26.1797C43.5748 25.637 44.1527 25.3357 44.696 25.5059C45.8017 25.8529 46.2138 26.573 46.3646 27.1158C46.9175 29.1035 44.827 31.8226 42.7096 34.22C42.6349 34.3048 42.5712 34.3767 42.5216 34.434C42.3177 34.6688 42.0309 34.7888 41.7432 34.7888H41.7431Z" fill="#06AC72"/>
<path d="M45.019 53.2101C44.9477 53.2101 44.8749 53.2053 44.8026 53.1952C43.4043 53.0048 41.9916 52.2254 40.496 51.4002C39.2385 50.7066 37.9384 49.9893 36.775 49.7339C36.561 49.6871 36.3643 49.6693 36.1556 49.6505C35.6331 49.6037 34.9179 49.5396 34.3852 48.8634C33.6655 47.9606 33.44 44.6101 33.439 44.2781C33.4472 42.9203 34.6329 42.497 35.4176 42.217C36.9137 41.6762 41.1558 41.3923 43.0091 41.3923C43.2934 41.3923 43.5417 41.3981 43.7465 41.4097C44.4743 41.4507 45.515 41.5924 46.1431 42.351C46.6766 43.0042 46.7431 44.3528 46.6839 48.3515C46.6694 49.316 46.6564 50.227 46.6872 50.6507C46.7162 51.0657 46.7186 52.0905 46.1262 52.7248C45.8346 53.0381 45.4413 53.2102 45.019 53.2102L45.019 53.2101ZM36.0033 47.562C36.0881 47.5775 36.2293 47.59 36.3392 47.5996C36.5778 47.6213 36.8747 47.6474 37.2165 47.7225C38.6721 48.0421 40.1051 48.8326 41.4914 49.597C42.6265 50.2236 43.7081 50.8199 44.6346 51.0638C44.6394 50.9857 44.6399 50.896 44.6331 50.7972C44.596 50.2873 44.6095 49.3762 44.6249 48.3217C44.6457 46.9133 44.6837 44.3514 44.5025 43.629C44.4104 43.5827 44.1723 43.4964 43.632 43.466C43.4652 43.4569 43.256 43.4521 43.0097 43.4521C40.8282 43.4521 37.1443 43.7832 36.1147 44.1553C35.7812 44.2744 35.5994 44.3573 35.5026 44.4093C35.5324 45.2543 35.8019 47.042 36.0034 47.5621L36.0033 47.562Z" fill="#06AC72"/>
<path fill-rule="evenodd" clip-rule="evenodd" d="M41.6479 46.1408C41.804 45.7191 42.2634 45.5012 42.6765 45.653C43.0982 45.8092 43.3166 46.2686 43.1599 46.6898C43.0076 47.1029 42.5487 47.3212 42.1357 47.1694C41.71 47.0219 41.496 46.5539 41.6479 46.1408Z" fill="#06AC72"/>
<path d="M35.7648 44.2173C35.5662 44.2173 35.3695 44.1599 35.1994 44.0486C34.928 43.8702 34.7569 43.5753 34.7366 43.2513C34.7203 42.9872 34.7005 42.7023 34.6798 42.4016C34.5376 40.3565 34.3433 37.5559 34.8538 35.6906C35.236 34.2706 36.6285 31.7405 38.1637 29.6795C40.2695 26.8526 42.1783 25.4075 43.8383 25.3834C43.5842 23.1426 43.6498 20.4462 44.2374 18.6995C44.6181 17.5518 45.8655 15.7251 47.5869 15.7251C47.89 15.7251 48.1894 15.7839 48.4757 15.9006C49.2999 16.2375 49.8937 17.1817 50.3483 18.8726C50.6746 20.0873 50.9228 21.676 51.0665 23.4662C51.3108 26.5191 51.2487 30.3574 50.5584 32.0506C49.7178 34.1213 48.5894 35.2781 47.5932 36.2995C46.2224 37.7051 45.0381 38.9192 44.7152 42.5309C44.6655 43.0842 44.1864 43.4997 43.6316 43.4674C43.4648 43.4583 43.2557 43.4534 43.0093 43.4534C40.8278 43.4534 37.1439 43.7846 36.1143 44.1567C36.0015 44.1972 35.8829 44.2174 35.7648 44.2174L35.7648 44.2173ZM43.8812 27.442C43.1649 27.442 41.7208 28.353 39.816 30.9091C38.3044 32.9378 37.1168 35.2076 36.842 36.2294C36.4482 37.6687 36.5831 40.0488 36.7104 41.905C38.5285 41.585 41.2562 41.411 42.774 41.3936C43.2917 37.7593 44.7271 36.2872 46.1196 34.8601C47.0672 33.8884 47.9623 32.971 48.6511 31.2735C49.095 30.1837 49.2604 27.0223 49.0358 23.9187C48.7446 19.891 48.0028 18.0744 47.6746 17.7978C47.6457 17.7886 47.6168 17.7838 47.5874 17.7838C47.1699 17.7838 46.4392 18.6042 46.1915 19.3513C45.577 21.1786 45.6705 24.6345 46.1419 26.7182C46.247 27.1824 46.0204 27.6576 45.5939 27.8687C45.1673 28.0794 44.652 27.9709 44.347 27.6056C44.3407 27.5983 44.2819 27.5323 44.0872 27.4735C44.0838 27.4725 44.0799 27.4711 44.0766 27.4701C44.0168 27.4518 43.9527 27.4422 43.8814 27.4422L43.8812 27.442Z" fill="#06AC72"/>
<path d="M13.8869 33.7141C13.6083 33.7141 13.3311 33.6018 13.1282 33.3805C13.0742 33.3217 13.0053 33.248 12.9243 33.1612C10.7761 30.863 8.37705 27.957 8.89579 25.8685C9.03509 25.3074 9.43804 24.5564 10.5654 24.1675C11.1033 23.9819 11.6895 24.2673 11.875 24.8047C12.0605 25.3421 11.7752 25.9287 11.2378 26.1143C10.9312 26.2203 10.9047 26.3254 10.8951 26.3649C10.8208 26.6628 10.857 27.9329 14.4297 31.7552C14.5155 31.8473 14.5887 31.9254 14.6461 31.988C15.0307 32.4069 15.0028 33.0585 14.5839 33.4432C14.3853 33.6244 14.1356 33.7141 13.8869 33.7141L13.8869 33.7141Z" fill="#06AC72"/>
<path d="M10.9787 53.1199C10.5593 53.1199 10.1651 52.9503 9.86911 52.6418C9.2589 52.006 9.23335 50.9616 9.2507 50.5422C9.27095 50.0915 9.22998 49.1357 9.1866 48.1244C9.00777 43.9483 9.0362 42.539 9.56208 41.8565C10.1906 41.053 11.2631 40.8761 12.0155 40.8129C12.4103 40.7797 12.9429 40.7628 13.5999 40.7628C15.6045 40.7628 19.3189 40.9392 20.7542 41.413C21.5673 41.6776 22.8028 42.0801 22.8499 43.4586C22.8591 43.8139 22.7231 47.3141 21.9992 48.2757C21.4776 48.978 20.742 49.0648 20.2047 49.1279C19.9945 49.1525 19.7776 49.178 19.5515 49.2344C18.3326 49.5381 16.9878 50.33 15.6869 51.0959C14.1473 52.0026 12.6936 52.8586 11.2437 53.0977C11.1551 53.1122 11.0659 53.1199 10.9786 53.1199L10.9787 53.1199ZM11.2404 43.0804C11.064 43.8207 11.1806 46.5435 11.2448 48.0358C11.292 49.1396 11.333 50.093 11.3089 50.6299C11.3036 50.7571 11.3103 50.8743 11.3224 50.9721C12.3052 50.6969 13.4446 50.0259 14.6424 49.3203C16.0695 48.4801 17.5454 47.6107 19.0547 47.2352C19.4075 47.1475 19.7165 47.1108 19.9647 47.0819C20.0929 47.067 20.2601 47.0472 20.3474 47.0255C20.5489 46.4972 20.7908 44.5278 20.7928 43.6332C20.694 43.5812 20.4968 43.4944 20.1127 43.3691C19.1332 43.0457 15.8956 42.8215 13.5999 42.8215C13.0089 42.8215 12.5211 42.8365 12.1885 42.8644C11.585 42.916 11.3349 43.023 11.2404 43.0804L11.2404 43.0804Z" fill="#06AC72"/>
<path fill-rule="evenodd" clip-rule="evenodd" d="M14.3498 45.6609C14.1734 45.2233 13.6861 45.0083 13.2576 45.1799C12.8204 45.3558 12.6049 45.8436 12.7814 46.2808C12.9529 46.7093 13.4402 46.9248 13.8692 46.7532C14.3107 46.5859 14.5209 46.0899 14.3498 45.6609H14.3498Z" fill="#06AC72"/>
<path d="M20.4306 43.4213C20.3221 43.4213 20.2132 43.4044 20.1076 43.3692C19.1321 43.0473 15.8944 42.8226 13.5987 42.8226C13.0082 42.8226 12.5199 42.8376 12.1873 42.8656C11.6344 42.9113 11.1433 42.5113 11.0782 41.9599C10.6314 38.1655 9.34824 36.9225 7.86321 35.4822C6.79268 34.4445 5.57896 33.2685 4.64056 31.1307C3.87176 29.3849 3.69439 25.3722 3.8602 22.1708C3.95756 20.2928 4.17061 18.6237 4.4762 17.3435C4.89892 15.5741 5.48504 14.5783 6.32031 14.2086C6.63506 14.0703 6.96329 14.0009 7.29829 14.0009C9.04455 14.0009 10.3619 15.8358 10.7822 16.9926C11.4512 18.8112 11.5953 21.6565 11.3885 24.0174C13.1339 23.96 15.193 25.4283 17.5091 28.3728C19.1614 30.4738 20.6791 33.0612 21.1173 34.525C21.7039 36.453 21.5824 39.3899 21.4938 41.5343C21.4807 41.85 21.4682 42.1494 21.4591 42.4265C21.4484 42.7504 21.285 43.0507 21.019 43.2363C20.8445 43.3582 20.6382 43.4214 20.4305 43.4214L20.4306 43.4213ZM13.5987 40.7635C15.1421 40.7635 17.6995 40.8681 19.4492 41.1328C19.5288 39.1714 19.6064 36.6347 19.1456 35.1202C18.3797 32.5623 13.7395 26.0759 11.4836 26.0759C11.393 26.0759 11.3125 26.0884 11.2383 26.1144C11.2349 26.1154 11.2315 26.1169 11.2277 26.1178C11.0638 26.1728 10.9698 26.2378 10.9361 26.2802C10.6416 26.6538 10.1292 26.7772 9.69683 26.5786C9.26448 26.38 9.02492 25.9106 9.11651 25.444C9.55127 23.2388 9.54646 19.6011 8.84707 17.7001C8.58389 16.9752 7.80257 16.0608 7.29738 16.0608C7.25448 16.0608 7.21399 16.0685 7.17109 16.0849C6.83321 16.3626 6.09526 18.2732 5.90299 22.5452C5.75502 25.8267 6.02204 29.1616 6.52478 30.302C7.30177 32.0709 8.27017 33.0103 9.29581 34.0043C10.7963 35.4589 12.3445 36.9594 12.9875 40.7691C13.1779 40.7653 13.3817 40.7634 13.5986 40.7634L13.5987 40.7635Z" fill="#06AC72"/>
<path d="M28.0032 28.0194C21.0474 28.0194 15.3888 22.3602 15.3888 15.405C15.3888 8.44919 21.0479 2.79053 28.0032 2.79053C34.959 2.79053 40.6176 8.44969 40.6176 15.405C40.6171 22.3607 34.9585 28.0194 28.0032 28.0194ZM28.0032 4.84872C22.183 4.84872 17.4478 9.58392 17.4478 15.4041C17.4478 21.2243 22.183 25.9595 28.0032 25.9595C33.8234 25.9595 38.5586 21.2243 38.5586 15.4041C38.5581 9.58392 33.8234 4.84872 28.0032 4.84872Z" fill="#06AC72"/>
</svg>
