<svg width="55" height="56" viewBox="0 0 55 56" fill="none" xmlns="http://www.w3.org/2000/svg">
<path d="M45.8861 13.0798C44.2643 13.0798 42.715 13.7531 41.6084 14.9395C40.5018 16.1255 39.937 17.7179 40.0486 19.3363C40.1605 20.9546 40.9389 22.4543 42.1981 23.477L38.3746 31.9104C37.4423 31.4062 36.391 31.1657 35.3324 31.2144C34.2739 31.263 33.2485 31.599 32.3666 32.1862L27.6728 21.9082H27.6723C28.0653 20.1908 27.6639 18.3873 26.5795 16.9988C25.4951 15.6103 23.8429 14.7843 22.0819 14.7504C20.3209 14.716 18.6379 15.4777 17.5005 16.823C16.3635 18.1687 15.8924 19.9548 16.2185 21.6865L11.319 27.9073C9.5549 27.1867 7.55075 27.3661 5.94272 28.3887C4.3347 29.4114 3.32172 31.1507 3.2258 33.0546C3.12945 34.9585 3.96179 36.7906 5.45924 37.9703C6.95616 39.1496 8.93176 39.5302 10.7597 38.9907C12.5877 38.4513 14.0404 37.0592 14.6578 35.2557C15.2752 33.4522 14.9803 31.4612 13.8665 29.9143L17.8899 24.8076C18.9073 25.8031 20.254 26.3916 21.6755 26.4625C23.0971 26.533 24.495 26.081 25.6066 25.1918L30.106 35.0317C29.4186 36.8852 29.713 38.96 30.8888 40.5489C32.0641 42.1378 33.9621 43.0262 35.9346 42.9101C37.907 42.7946 39.6882 41.6907 40.67 39.9751C41.6517 38.2599 41.7017 36.1647 40.8029 34.4044L45.1777 24.7537C46.7648 24.9192 48.3505 24.4293 49.5678 23.3973C50.785 22.3648 51.5282 20.8803 51.625 19.287C51.7218 17.6937 51.1638 16.1297 50.0804 14.9581C48.9965 13.7864 47.4816 13.1078 45.8862 13.0801L45.8861 13.0798ZM9.11232 35.9614C8.42093 35.9614 7.75814 35.687 7.26918 35.198C6.78022 34.709 6.50553 34.0459 6.50553 33.3543C6.50553 32.6627 6.7803 31.9997 7.26918 31.5106C7.75806 31.0215 8.4209 30.7467 9.11232 30.7467C9.80374 30.7467 10.4665 31.0215 10.9555 31.5106C11.4444 31.9996 11.7187 32.6627 11.7187 33.3543C11.7173 34.0454 11.4425 34.7076 10.9537 35.1962C10.4653 35.6852 9.80333 35.9601 9.11236 35.9614L9.11232 35.9614ZM21.9667 23.2436C21.2753 23.2436 20.6125 22.9687 20.1236 22.4797C19.6346 21.9907 19.3599 21.3276 19.3599 20.636C19.3599 19.9444 19.6347 19.2814 20.1236 18.7923C20.6124 18.3032 21.2753 18.0284 21.9667 18.0284C22.6581 18.0284 23.3209 18.3033 23.8098 18.7923C24.2988 19.2813 24.573 19.9444 24.573 20.636C24.5717 21.3272 24.2969 21.9893 23.8081 22.4783C23.3196 22.9669 22.6577 23.2418 21.9667 23.2436L21.9667 23.2436ZM35.6101 39.6715C34.9187 39.6715 34.256 39.3971 33.767 38.908C33.278 38.419 33.0033 37.7555 33.0033 37.0643C33.0033 36.3727 33.2781 35.7093 33.767 35.2206C34.2559 34.7316 34.9187 34.4567 35.6101 34.4567C36.3015 34.4567 36.9643 34.7316 37.4533 35.2206C37.9421 35.7092 38.2165 36.3727 38.2165 37.0643C38.2151 37.755 37.9404 38.4177 37.4515 38.9062C36.9631 39.3948 36.3011 39.6701 35.6102 39.6714L35.6101 39.6715ZM45.885 21.5439C45.1936 21.5439 44.5308 21.2691 44.0418 20.78C43.5529 20.291 43.2782 19.628 43.2782 18.9363C43.2782 18.2447 43.5529 17.5817 44.0418 17.0926C44.5307 16.6035 45.1935 16.3292 45.885 16.3292C46.5763 16.3292 47.2391 16.6036 47.7281 17.0926C48.2171 17.5817 48.4913 18.2447 48.4913 18.9363C48.49 19.6275 48.2152 20.2901 47.7263 20.7787C47.2379 21.2672 46.576 21.5426 45.885 21.5439L45.885 21.5439Z" fill="#06AC72"/>
</svg>
