<svg width="55" height="61" viewBox="0 0 55 61" fill="none" xmlns="http://www.w3.org/2000/svg">
<g filter="url(#filter0_d_2_138)">
<path d="M27.4998 14.9082C26.278 14.9082 25.106 15.3973 24.2416 16.2685C23.3778 17.1392 22.8921 18.3205 22.8921 19.5525C22.8921 20.784 23.3777 21.9653 24.2416 22.8365C25.1059 23.7072 26.2779 24.1968 27.4998 24.1968C28.722 24.1968 29.894 23.7073 30.758 22.8365C31.6223 21.9654 32.1075 20.7841 32.1075 19.5525C32.1063 18.321 31.6202 17.1409 30.7563 16.2701C29.8928 15.3994 28.7217 14.9095 27.4998 14.9082ZM27.4998 22.6484C26.6854 22.6484 25.9038 22.3224 25.3277 21.7417C24.7516 21.1611 24.4281 20.3733 24.4281 19.5524C24.4281 18.7311 24.7516 17.9437 25.3277 17.363C25.9038 16.7824 26.6853 16.4563 27.4998 16.4563C28.3146 16.4563 29.0958 16.7824 29.6719 17.363C30.248 17.9437 30.5719 18.731 30.5719 19.5524C30.5719 20.3733 30.248 21.1611 29.6719 21.7417C29.0958 22.3224 28.3147 22.6484 27.4998 22.6484Z" fill="#06AC72"/>
<path d="M48.2355 6.49676C47.8114 6.49676 47.4676 6.84055 47.4676 7.265V12.6407H45.7905C45.632 12.1932 45.3393 11.8052 44.9521 11.5304C44.5649 11.2555 44.1024 11.1067 43.6276 11.1047H40.5558C40.1033 11.1047 39.6614 11.2381 39.2844 11.4878C38.9074 11.7371 38.6118 12.0922 38.4355 12.5086L31.4936 11.1201C31.4429 11.1099 31.3915 11.1047 31.34 11.1047H29.8038V9.56895C30.1343 9.56855 30.4278 9.35692 30.532 9.04354L30.5595 8.96003V8.95962C31.1202 9.47612 31.9002 9.68165 32.6425 9.50896C33.3848 9.33625 33.9933 8.8076 34.2686 8.09655C34.5439 7.38586 34.4498 6.58523 34.0172 5.95764C33.5847 5.33006 32.8699 4.9571 32.1078 4.96114C32.0312 4.96114 31.9594 4.97655 31.886 4.98344L32.0689 4.43574C32.1467 4.20141 32.1074 3.94397 31.9631 3.7437C31.8187 3.54343 31.5868 3.42505 31.34 3.42505H23.6603C23.4134 3.42505 23.1819 3.54383 23.0376 3.7441C22.8933 3.94438 22.8543 4.20182 22.9322 4.43574L23.115 4.98344C23.0404 4.97655 22.9691 4.96114 22.892 4.96114C22.1299 4.95668 21.4152 5.32966 20.9826 5.95724C20.5496 6.58482 20.4556 7.38553 20.7304 8.09656C21.0057 8.80724 21.6146 9.33585 22.357 9.50855C23.0993 9.68166 23.8789 9.47612 24.4395 8.95962L24.4671 9.04314L24.4675 9.04354C24.5717 9.35732 24.8656 9.56895 25.196 9.56895V11.1051L23.6603 11.1047C23.6084 11.1047 23.5573 11.1099 23.5066 11.1201L16.562 12.5094C16.3856 12.0935 16.0909 11.7388 15.7143 11.489C15.3376 11.2393 14.8961 11.1055 14.4446 11.1047H11.3727C10.8976 11.1067 10.435 11.2555 10.0478 11.5304C9.66105 11.8052 9.36835 12.1932 9.20984 12.6408H7.53267V7.26503C7.53267 6.84058 7.18888 6.49679 6.76483 6.49679C6.34037 6.49679 5.99658 6.84058 5.99658 7.26503V16.4808C5.99658 16.6843 6.07766 16.8797 6.22159 17.0237C6.36551 17.1676 6.56091 17.2487 6.76484 17.2487H9.06876V18.0165C9.06876 18.2204 9.14944 18.4154 9.29336 18.5598C9.43768 18.7037 9.63309 18.7844 9.83661 18.7844V26.4644H8.30049C7.87644 26.4644 7.53265 26.8082 7.53265 27.2323V36.4481C7.53265 36.6516 7.61373 36.847 7.75766 36.9909C7.90157 37.1352 8.09698 37.2159 8.3005 37.2159H9.06875V40.2882C9.06875 40.8991 9.31118 41.4849 9.74335 41.9171C10.1755 42.3492 10.7613 42.5921 11.3727 42.5921H14.4445C14.648 42.5921 14.8434 42.511 14.9873 42.3671C15.1317 42.2227 15.2123 42.0277 15.2123 41.8238V38.752C15.2111 38.1698 14.9882 37.6104 14.5888 37.1867C14.9472 37.1227 15.2091 36.8121 15.2123 36.448V27.2323C15.2123 27.0288 15.1317 26.8333 14.9873 26.6894C14.8434 26.5451 14.648 26.4644 14.4445 26.4644V18.7843H15.2123V19.5526C15.2123 19.6503 15.231 19.7472 15.2671 19.838L18.3389 27.5177V27.5181C18.4557 27.8096 18.7382 28.0005 19.0524 28.0001H22.8925V28.7679L21.5375 28.7683C20.8787 28.7691 20.2471 29.031 19.7809 29.4969C19.3151 29.9631 19.0532 30.5947 19.0524 31.2535V31.6589C19.0524 31.9849 19.1172 32.3076 19.2429 32.608H19.0524C18.6283 32.608 18.2841 32.9518 18.2841 33.3762V35.6801H17.5163C17.0922 35.6801 16.7484 36.0239 16.7484 36.448V44.8956H15.9806C15.6895 44.8956 15.4231 45.0602 15.293 45.3204L12.2212 51.4644C12.102 51.7024 12.115 51.9849 12.2548 52.2116C12.3951 52.4378 12.6424 52.5756 12.9084 52.5756H25.1954C25.4132 52.5764 25.6211 52.4852 25.7679 52.3243C25.9142 52.1629 25.9852 51.9472 25.9637 51.7307L24.4276 36.3716V36.3712C24.3878 35.9776 24.0554 35.6784 23.6597 35.6804H22.8915V34.1443H32.1073V35.6804H31.3394C30.9433 35.6784 30.6109 35.9776 30.5716 36.3712L29.0355 51.7303V51.7307C29.0136 51.9472 29.0849 52.1629 29.2313 52.3243C29.3776 52.4852 29.5856 52.5764 29.8033 52.5756H42.0914C42.3574 52.5756 42.6047 52.4378 42.7446 52.2116C42.8848 51.9849 42.8974 51.7024 42.7786 51.4644L39.7068 45.3204C39.5767 45.0602 39.3103 44.8956 39.0192 44.8956H38.2514V36.448C38.2514 36.2445 38.1703 36.0491 38.0264 35.9047C37.8825 35.7608 37.687 35.6801 37.4835 35.6801H36.7153V33.3762C36.7153 33.1723 36.6346 32.9769 36.4903 32.833C36.3463 32.689 36.1509 32.608 35.9474 32.608H35.7569C35.8826 32.3076 35.947 31.9848 35.9474 31.6589V31.2535C35.9466 30.5947 35.6843 29.963 35.2185 29.4968C34.7527 29.031 34.1211 28.7691 33.4622 28.7683H32.1073V28.0001H35.9474C36.2616 28.0005 36.5441 27.8095 36.6609 27.518L39.7327 19.8384V19.838C39.7688 19.7472 39.7875 19.6503 39.7875 19.5526V18.7843H40.5553V26.4644C40.1312 26.4644 39.7875 26.8082 39.7875 27.2322V36.448C39.787 36.654 39.8702 36.8518 40.0177 36.9957C39.8673 37.3034 39.7887 37.6415 39.7875 37.9841V41.0559C39.7875 41.2594 39.8681 41.4549 40.0121 41.5988C40.1564 41.7431 40.3514 41.8238 40.5553 41.8238H43.6271C44.2381 41.8238 44.8243 41.581 45.2565 41.1492C45.6882 40.717 45.9311 40.1308 45.9311 39.5199V37.2159H46.6989C46.9028 37.2159 47.0982 37.1353 47.2421 36.9909C47.3861 36.847 47.4671 36.6516 47.4671 36.4481V27.2323C47.4671 27.0288 47.3861 26.8334 47.2421 26.6895C47.0982 26.5451 46.9028 26.4645 46.6989 26.4645H45.1632V18.7844C45.3667 18.7844 45.5621 18.7037 45.706 18.5598C45.8504 18.4155 45.931 18.2205 45.931 18.0165V17.2487H48.235C48.4389 17.2487 48.6339 17.1676 48.7782 17.0237C48.9221 16.8798 49.0028 16.6844 49.0028 16.4808V7.26505C49.0028 7.06113 48.9221 6.86571 48.7782 6.7218C48.6339 6.57788 48.4389 6.49679 48.235 6.49679L48.2355 6.49676ZM32.8764 7.265C32.8764 7.57555 32.6891 7.85569 32.402 7.97447C32.115 8.09325 31.785 8.02758 31.5653 7.80784C31.3455 7.58811 31.2799 7.2581 31.3986 6.97108C31.5174 6.68405 31.7976 6.49675 32.1081 6.49675C32.312 6.49675 32.5074 6.57783 32.6514 6.72175C32.7953 6.86567 32.8764 7.06108 32.8764 7.265ZM22.8924 8.03285C22.5818 8.03285 22.3017 7.84555 22.1829 7.55892C22.0641 7.2719 22.1298 6.94149 22.3495 6.72175C22.5693 6.50202 22.8993 6.43635 23.1863 6.55513C23.4733 6.67431 23.6606 6.95406 23.6606 7.265C23.6606 7.46851 23.5795 7.66392 23.4356 7.80784C23.2917 7.95176 23.0963 8.03285 22.8924 8.03285ZM30.2741 4.96102L29.2508 8.03285H25.7501L24.7265 4.96102H30.2741ZM26.7324 9.56886H28.2685V11.105L26.7324 11.1046V9.56886ZM7.53324 15.7124V14.1767H9.06936V15.7128L7.53324 15.7124ZM9.06936 27.9995H13.6772V35.6796H9.06936V27.9995ZM13.6772 41.0556H11.3733C10.9488 41.0556 10.605 40.7118 10.605 40.2878V37.9839H12.909C13.1129 37.9839 13.3079 38.0645 13.4522 38.2085C13.5961 38.3528 13.6772 38.5478 13.6772 38.7517L13.6772 41.0556ZM12.909 26.4645H11.3732V18.7844H12.9094L12.909 26.4645ZM13.6768 17.2487H10.605V13.4087C10.605 12.9846 10.9488 12.6409 11.3732 12.6409H14.445C14.6486 12.6409 14.844 12.7215 14.9879 12.8659C15.1322 13.0098 15.2129 13.2052 15.2129 13.4087V17.2487L13.6768 17.2487ZM20.5887 31.6593V31.2539C20.5891 30.7297 21.0139 30.3048 21.5381 30.3044H22.8926V32.6083H21.5381C21.0139 32.6079 20.5891 32.1834 20.5887 31.6593V31.6593ZM14.1516 51.0401L16.4555 46.4322H18.4521L19.6039 51.0401H14.1516ZM24.3472 51.0401H21.1886L19.7977 45.4774C19.7122 45.136 19.4053 44.8964 19.053 44.896H18.2847V37.2164H22.9656L24.3472 51.0401ZM19.8209 35.6809V34.1448H21.357V35.6809H19.8209ZM40.8498 51.0401H35.397L36.5488 46.4322H38.5454L40.8498 51.0401ZM35.9487 44.8961C35.5964 44.8965 35.2895 45.1361 35.2036 45.4774L33.8131 51.0401H30.6537L32.0362 37.216H36.7167V44.8956L35.9487 44.8961ZM33.6448 35.6807V34.1446H35.1809V35.6807H33.6448ZM33.4636 30.305V30.3046C33.9878 30.305 34.4122 30.7298 34.4126 31.254V31.6594C34.4122 32.1836 33.9878 32.6081 33.4636 32.6085H32.1087V30.3046L33.4636 30.305ZM30.573 29.5367V32.6086H24.429V28.0007H30.573V29.5367ZM38.2526 19.4056L35.4285 26.465H19.5733L16.7496 19.4056V14.0392L23.7381 12.6413H31.2642L38.253 14.0392V19.406L38.2526 19.4056ZM39.7887 13.4092C39.7887 12.9851 40.1325 12.6413 40.5566 12.6413H43.6284C43.8323 12.6413 44.0273 12.722 44.1717 12.8663C44.3156 13.0103 44.3963 13.2057 44.3963 13.4092V17.2492H39.7887L39.7887 13.4092ZM44.3966 39.5204H44.3962C44.3962 39.7243 44.3155 39.9193 44.1716 40.0637C44.0273 40.2076 43.8323 40.2887 43.6283 40.2887H41.3244V37.9848C41.3244 37.5603 41.6682 37.2165 42.0927 37.2165H44.3966L44.3966 39.5204ZM45.9327 35.6804L41.3245 35.6808V28.0007H45.9323L45.9327 35.6804ZM43.6284 26.465H42.0927V18.7849H43.6288L43.6284 26.465ZM45.9323 14.1779H47.4684V15.714L45.9323 15.7136V14.1779Z" fill="#06AC72"/>
</g>
<defs>
<filter id="filter0_d_2_138" x="-4" y="0.5" width="63" height="63" filterUnits="userSpaceOnUse" color-interpolation-filters="sRGB">
<feFlood flood-opacity="0" result="BackgroundImageFix"/>
<feColorMatrix in="SourceAlpha" type="matrix" values="0 0 0 0 0 0 0 0 0 0 0 0 0 0 0 0 0 0 127 0" result="hardAlpha"/>
<feOffset dy="4"/>
<feGaussianBlur stdDeviation="2"/>
<feComposite in2="hardAlpha" operator="out"/>
<feColorMatrix type="matrix" values="0 0 0 0 0 0 0 0 0 0 0 0 0 0 0 0 0 0 0.25 0"/>
<feBlend mode="normal" in2="BackgroundImageFix" result="effect1_dropShadow_2_138"/>
<feBlend mode="normal" in="SourceGraphic" in2="effect1_dropShadow_2_138" result="shape"/>
</filter>
</defs>
</svg>
